HIERARCHY
ROOT reference
{
  OFFSET 0 0 0
  CHANNELS 6 Xposition Yposition Zposition Zrotation Xrotation Yrotation
  JOINT Hips
  {
    OFFSET -1.93655 85.1432 160.345
    CHANNELS 6 Xposition Yposition Zposition Zrotation Xrotation Yrotation
    JOINT Spine
    {
      OFFSET 0 7.31558 0
      CHANNELS 6 Xposition Yposition Zposition Zrotation Xrotation Yrotation
      JOINT Spine1
      {
        OFFSET 0 21.7428 0
        CHANNELS 6 Xposition Yposition Zposition Zrotation Xrotation Yrotation
        JOINT Neck
        {
          OFFSET 0 21.6535 1.9685
          CHANNELS 6 Xposition Yposition Zposition Zrotation Xrotation Yrotation
          JOINT Head
          {
            OFFSET 0 12.49 -1.78429
            CHANNELS 6 Xposition Yposition Zposition Zrotation Xrotation Yrotation
            End Site
            {
              OFFSET 0 22.3036 0
            }
          }
        }
        JOINT LeftShoulder
        {
          OFFSET 3.56546 21.4407 -0.045508
          CHANNELS 6 Xposition Yposition Zposition Zrotation Xrotation Yrotation
          JOINT LeftArm
          {
            OFFSET 5.86532 0 0
            CHANNELS 6 Xposition Yposition Zposition Zrotation Xrotation Yrotation
            JOINT LeftForeArm
            {
              OFFSET 30.0831 0 0
              CHANNELS 6 Xposition Yposition Zposition Zrotation Xrotation Yrotation
              JOINT LeftHand
              {
                OFFSET 21.3133 0 0
                CHANNELS 6 Xposition Yposition Zposition Zrotation Xrotation Yrotation
                End Site
                {
                  OFFSET 13.3822 0 0
                }
              }
            }
          }
        }
        JOINT RightShoulder
        {
          OFFSET -3.55605 21.4407 -0.045508
          CHANNELS 6 Xposition Yposition Zposition Zrotation Xrotation Yrotation
          JOINT RightArm
          {
            OFFSET -5.86532 0 0
            CHANNELS 6 Xposition Yposition Zposition Zrotation Xrotation Yrotation
            JOINT RightForeArm
            {
              OFFSET -30.0831 0 0
              CHANNELS 6 Xposition Yposition Zposition Zrotation Xrotation Yrotation
              JOINT RightHand
              {
                OFFSET -21.3133 0 0
                CHANNELS 6 Xposition Yposition Zposition Zrotation Xrotation Yrotation
                End Site
                {
                  OFFSET -13.3822 0 0
                }
              }
            }
          }
        }
      }
    }
    JOINT LeftUpLeg
    {
      OFFSET 8.92144 0 0
      CHANNELS 6 Xposition Yposition Zposition Zrotation Xrotation Yrotation
      JOINT LeftLeg
      {
        OFFSET 0 -39.6329 0
        CHANNELS 6 Xposition Yposition Zposition Zrotation Xrotation Yrotation
        JOINT LeftFoot
        {
          OFFSET 0 -38.0584 0
          CHANNELS 6 Xposition Yposition Zposition Zrotation Xrotation Yrotation
          JOINT LeftToeBase
          {
            OFFSET 0 -5.79894 13.3822
            CHANNELS 6 Xposition Yposition Zposition Zrotation Xrotation Yrotation
            End Site
            {
              OFFSET 0 0 3.56858
            }
          }
        }
      }
    }
    JOINT RightUpLeg
    {
      OFFSET -8.92144 0 0
      CHANNELS 6 Xposition Yposition Zposition Zrotation Xrotation Yrotation
      JOINT RightLeg
      {
        OFFSET 0 -39.6329 0
        CHANNELS 6 Xposition Yposition Zposition Zrotation Xrotation Yrotation
        JOINT RightFoot
        {
          OFFSET 0 -38.0584 0
          CHANNELS 6 Xposition Yposition Zposition Zrotation Xrotation Yrotation
          JOINT RightToeBase
          {
            OFFSET 0 -5.79894 13.3822
            CHANNELS 6 Xposition Yposition Zposition Zrotation Xrotation Yrotation
            End Site
            {
              OFFSET 0 0 3.56858
            }
          }
        }
      }
    }
  }
}
MOTION
Frames:	6
Frame Time:	0.004
0 0 0 0 0 -0 -2.17213 69.9124 -154.884 4.71899 5.84253 33.2197 1.42109e-014 7.31558 2.84217e-014 -3.72411 2.05745 -0.416281 0 21.7428 2.84217e-014 -3.65244 -2.57436 -0.565672 0 21.6535 1.9685 -4.13373 5.74602 -8.75626 0 12.49 -1.78429 3.46826 -9.07282 -7.95034 3.56546 21.4407 -0.045508 -9.63751 13.4507 -8.56258 5.86532 0 0 -41.2412 64.5869 -16.2738 30.0831 0 0 -5.66379 -12.1252 -14.2941 21.3133 0 2.84217e-014 -19.9824 -11.4352 -8.02087 -3.55605 21.4407 -0.045508 10.2543 15.3223 -3.93126 -5.86532 7.10543e-015 0 36.1563 68.2023 20.6595 -30.0831 0 7.10543e-015 3.60075 -17.9356 28.2869 -21.3133 0 0 4.90409 -18.5141 6.97655 8.92144 -1.42109e-014 0 -19.5162 -26.9101 -6.15552 0 -39.6329 0 1.18618 48.2389 -4.00441 -7.10543e-015 -38.0584 2.84217e-014 12.9743 -25.9075 13.315 0 -5.79894 13.3822 0 0 -6.36111e-015 -8.92144 -1.42109e-014 2.84217e-014 -5.19034 6.72348 -10.5831 0 -39.6329 0 18.887 61.6349 -3.90737 -7.10543e-015 -38.0584 0 2.25425 -12.0681 -19.9814 3.55271e-015 -5.79894 13.3822 -2.20695e-032 -3.18055e-015 -3.97569e-016 
0 0 0 0 0 -0 -2.04556 69.9344 -154.444 4.76876 5.72688 33.4448 0 7.31558 0 -3.75329 2.15889 -0.525497 1.42109e-014 21.7428 0 -3.67028 -2.59958 -0.67982 1.42109e-014 21.6535 1.9685 -3.84057 5.68054 -8.75968 0 12.49 -1.78429 3.28074 -9.06752 -8.02119 3.56546 21.4407 -0.045508 -9.48635 13.4349 -8.65535 5.86532 0 2.84217e-014 -40.2802 64.0339 -17.2255 30.0831 1.42109e-014 0 -5.87292 -11.6824 -14.3597 21.3133 -1.42109e-014 0 -19.9588 -11.0219 -8.02166 -3.55605 21.4407 -0.045508 10.1809 15.318 -3.73869 -5.86532 0 2.84217e-014 35.7353 67.776 21.0935 -30.0831 2.84217e-014 -1.42109e-014 3.34277 -17.7684 28.3717 -21.3133 -2.84217e-014 3.55271e-015 4.86733 -18.2953 6.85184 8.92144 -1.42109e-014 -2.84217e-014 -19.4242 -26.5238 -6.14583 -1.42109e-014 -39.6329 1.42109e-014 1.19392 48.491 -4.40713 0 -38.0584 2.84217e-014 13.1209 -26.0428 13.701 -1.42109e-014 -5.79894 13.3822 -1.98785e-016 3.97569e-016 3.18055e-015 -8.92144 0 0 -5.52541 5.77627 -10.568 -7.10543e-015 -39.6329 0 20.2592 63.8035 -4.48374 -7.10543e-015 -38.0584 7.10543e-015 1.87912 -12.6784 -19.8027 0 -5.79894 13.3822 8.82781e-032 -6.36111e-015 7.95139e-016 
0 0 0 0 0 -0 -1.9236 69.9797 -153.983 4.84494 5.58664 33.5505 -1.42109e-014 7.31558 0 -3.81779 2.26132 -0.539747 -1.42109e-014 21.7428 0 -3.68757 -2.6128 -0.69954 0 21.6535 1.9685 -3.60979 5.65103 -8.81218 -7.10543e-015 12.49 -1.78429 3.28594 -9.04635 -8.09692 3.56546 21.4407 -0.045508 -9.29613 13.5259 -8.87099 5.86532 1.42109e-014 0 -39.1243 63.7101 -18.4923 30.0831 -1.42109e-014 0 -5.93173 -11.4312 -14.1126 21.3133 1.42109e-014 0 -19.8 -10.7363 -8.25122 -3.55605 21.4407 -0.045508 10.4591 15.275 -4.16675 -5.86532 1.42109e-014 2.84217e-014 33.8844 67.6847 22.7054 -30.0831 0 0 3.2944 -17.7198 28.4761 -21.3133 0 -7.10543e-015 4.32723 -18.2714 6.78617 8.92144 -7.10543e-015 0 -19.2667 -26.0291 -5.92248 0 -39.6329 0 1.29325 48.6215 -4.56252 -7.10543e-015 -38.0584 0 13.1094 -26.3017 13.7392 0 -5.79894 13.3822 0 0 -3.18055e-015 -8.92144 -7.10543e-015 0 -5.88688 4.77109 -10.6837 0 -39.6329 0 21.3571 65.9199 -6.20116 -7.10543e-015 -38.0584 0 2.23653 -13.0837 -18.3853 0 -5.79894 13.3822 -0 0 3.97569e-016 
0 0 0 0 0 -0 -1.79407 70.0401 -153.501 4.93649 5.39553 33.5979 0 7.31558 2.84217e-014 -4.00288 2.34 -0.614677 1.42109e-014 21.7428 -2.84217e-014 -3.37373 -2.56766 -0.772529 0 21.6535 1.9685 -3.6085 5.67753 -8.76707 0 12.49 -1.78429 3.26737 -9.08646 -8.05387 3.56546 21.4407 -0.045508 -9.27624 13.3775 -8.9192 5.86532 0 -2.84217e-014 -38.3653 63.4554 -19.3129 30.0831 0 0 -6.02273 -11.1105 -14.114 21.3133 0 -2.84217e-014 -19.6332 -10.4518 -8.17233 -3.55605 21.4407 -0.045508 10.1393 15.4032 -3.86784 -5.86532 0 0 33.5883 67.0105 23.1292 -30.0831 0 0 3.28761 -17.5853 28.5363 -21.3133 0 -3.55271e-015 3.74746 -18.1716 6.739 8.92144 7.10543e-015 2.84217e-014 -19.0474 -25.4436 -5.61085 0 -39.6329 0 1.39362 48.5244 -4.83056 0 -38.0584 -2.84217e-014 13.2465 -26.5255 14.0677 0 -5.79894 13.3822 -3.97569e-016 -3.97569e-016 -6.36111e-015 -8.92144 -7.10543e-015 0 -6.25804 3.83164 -10.5179 -1.42109e-014 -39.6329 0 23.4105 67.9829 -7.15741 7.10543e-015 -38.0584 0 2.08202 -13.7759 -18.2416 3.55271e-015 -5.79894 13.3822 1.59028e-015 0 -7.95139e-016 
0 0 0 0 0 -0 -1.76367 70.0822 -153.134 4.81477 5.35515 34.1529 0 7.31558 0 -4.03281 2.48861 -0.928019 0 21.7428 0 -3.19916 -2.76947 -1.09332 0 21.6535 1.9685 -3.5483 5.71138 -8.77857 1.42109e-014 12.49 -1.78429 3.35402 -9.12994 -8.05265 3.56546 21.4407 -0.045508 -9.16398 13.4046 -9.00086 5.86532 1.42109e-014 2.84217e-014 -37.1399 63.5949 -20.6952 30.0831 0 -2.84217e-014 -5.76064 -10.9769 -13.9036 21.3133 0 0 -19.5535 -10.2788 -8.18578 -3.55605 21.4407 -0.045508 10.177 15.4364 -4.10902 -5.86532 0 0 32.0575 66.6732 24.5609 -30.0831 0 -7.10543e-015 3.30295 -17.5687 28.7427 -21.3133 0 7.10543e-015 2.96868 -18.213 6.55052 8.92144 -1.42109e-014 0 -18.9797 -25.2562 -5.79015 0 -39.6329 0 1.61697 48.7428 -5.21275 0 -38.0584 2.84217e-014 13.0926 -26.5772 14.0033 0 -5.79894 13.3822 7.95139e-016 3.97569e-016 -0 -8.92144 -2.13163e-014 0 -6.50499 2.62265 -10.8117 0 -39.6329 0 25.829 69.9898 -9.86378 7.10543e-015 -38.0584 -7.10543e-015 2.43389 -14.4241 -16.9182 0 -5.79894 13.3822 -1.59028e-015 -6.36111e-015 -0 
0 0 0 0 0 -0 -1.67185 70.1595 -152.696 4.83972 5.19612 34.3607 0 7.31558 0 -4.02145 2.63431 -1.04192 0 21.7428 0 -3.30417 -2.81227 -1.21585 0 21.6535 1.9685 -3.06828 5.62269 -8.75338 0 12.49 -1.78429 3.06903 -9.05893 -8.13497 3.56546 21.4407 -0.045508 -8.76739 13.3371 -9.18776 5.86532 0 0 -36.3779 63.2644 -21.6497 30.0831 0 0 -5.73598 -10.5675 -13.8575 21.3133 0 2.84217e-014 -19.4417 -9.86341 -8.23263 -3.55605 21.4407 -0.045508 10.2828 15.2757 -4.05971 -5.86532 0 0 31.8338 66.3182 24.696 -30.0831 -2.84217e-014 0 3.20559 -17.6236 29.0465 -21.3133 0 7.10543e-015 2.25156 -18.2943 6.4138 8.92144 0 0 -18.769 -24.7761 -5.67418 0 -39.6329 0 1.69698 48.7631 -5.45906 0 -38.0584 0 13.0631 -26.6905 14.0308 1.42109e-014 -5.79894 13.3822 1.98785e-016 1.19271e-015 6.36111e-015 -8.92144 1.42109e-014 0 -6.84237 1.56519 -10.9361 7.10543e-015 -39.6329 -2.84217e-014 28.3029 72.074 -11.0757 0 -38.0584 7.10543e-015 2.12804 -14.9652 -16.8203 0 -5.79894 13.3822 0 0 -0 
